<?xml version="1.0" encoding="UTF-8" standalone="no"?>
<!-- Created with Inkscape (http://www.inkscape.org/) -->

<svg
   xmlns:dc="http://purl.org/dc/elements/1.1/"
   xmlns:cc="http://creativecommons.org/ns#"
   xmlns:rdf="http://www.w3.org/1999/02/22-rdf-syntax-ns#"
   xmlns:svg="http://www.w3.org/2000/svg"
   xmlns="http://www.w3.org/2000/svg"
   xmlns:sodipodi="http://sodipodi.sourceforge.net/DTD/sodipodi-0.dtd"
   xmlns:inkscape="http://www.inkscape.org/namespaces/inkscape"
   width="1296.245"
   height="70.192688"
   id="svg3563"
   version="1.1"
   inkscape:version="0.48.4 r9939"
   sodipodi:docname="New document 2">
  <defs
     id="defs3565" />
  <sodipodi:namedview
     id="base"
     pagecolor="#ffffff"
     bordercolor="#666666"
     borderopacity="1.0"
     inkscape:pageopacity="0.0"
     inkscape:pageshadow="2"
     inkscape:zoom="0.35355339"
     inkscape:cx="957.49717"
     inkscape:cy="323.17911"
     inkscape:document-units="px"
     inkscape:current-layer="layer1"
     showgrid="false"
     fit-margin-top="0"
     fit-margin-left="0"
     fit-margin-right="0"
     fit-margin-bottom="0"
     inkscape:window-width="1533"
     inkscape:window-height="667"
     inkscape:window-x="385"
     inkscape:window-y="24"
     inkscape:window-maximized="0" />
  <metadata
     id="metadata3568">
    <rdf:RDF>
      <cc:Work
         rdf:about="">
        <dc:format>image/svg+xml</dc:format>
        <dc:type
           rdf:resource="http://purl.org/dc/dcmitype/StillImage" />
        <dc:title></dc:title>
      </cc:Work>
    </rdf:RDF>
  </metadata>
  <g
     inkscape:label="Layer 1"
     inkscape:groupmode="layer"
     id="layer1"
     transform="translate(-47.36124,-522.31143)">
    <path
       style="fill-rule:evenodd"
       inkscape:connector-curvature="0"
       clip-rule="evenodd"
       d="m 292.11965,592.45212 c -81.59768,0 -244.75261,0.052 -244.75261,0.052 l -0.0058,-10.88662 3.381494,0.0173 0.118396,-4.20448 -3.167805,2.6047 -0.01444,-1.03957 c 0,0 3.710692,-2.77797 5.636786,-7.22791 1.874117,-4.33443 2.454544,-10.48234 2.454544,-10.48234 v -10.08385 l 1.025133,-0.003 0.0029,0.71615 4.663633,-0.003 0.01733,-0.70749 h 0.797005 v 2.28995 c 0.424491,1.64887 1.464063,4.76759 3.72513,7.52823 1.414972,1.72973 3.436361,3.30641 5.327803,4.55967 1.273475,-1.48716 2.945452,-3.81465 4.080317,-6.79187 2.330373,-6.10459 4.025452,-15.05645 4.025452,-15.05645 v -17.68715 c 0,0 1.469838,0.0116 1.93187,0.0116 0,0.64107 0,1.98962 0,2.63358 1.209945,0.003 12.073465,0.0462 12.073465,0.0462 l 0.03176,-1.92898 1.920319,-0.0895 -0.0058,13.6386 c 0,0 2.555613,12.13411 6.422238,21.9465 3.52877,8.94032 8.33967,17.16448 8.33967,17.16448 0,0 3.47679,-0.38406 5.05925,-0.71904 0,-0.0722 0,-0.14149 0,-0.21657 -0.2339,-0.23968 -0.36674,-0.54 -0.42738,-0.96161 0.64396,-0.3523 2.11668,-0.86053 2.11668,-0.86053 0,0 3.21113,0.003 4.95529,0.003 0.0895,0.12706 0.0837,0.12128 0.20792,0.21657 -0.0606,0.1877 -0.0173,0.10396 -0.10396,0.21369 -0.10396,0.30032 -0.34075,0.33498 -0.42738,0.53712 0,0.78256 0,1.56802 0,2.35347 0.36096,0 1.07134,0 1.07134,0 l 0.10973,-1.28214 c 0,0 0.1415,0 0.21369,0 0.28588,-0.1877 1.49872,-0.10684 1.49872,-0.10684 l 1.02513,-1.31679 6.58106,0.0318 c 0,0 0,-0.78545 0,-1.17818 0.10685,-0.0404 0.32054,-0.10973 0.32054,-0.10973 l 1.60845,-0.10973 0.0924,-0.67573 1.62289,0.0347 0.85476,2.57005 c 0,0 1.38032,0.12128 1.93187,0.10973 0.50823,-0.64396 1.52759,-0.8461 2.24374,-1.28791 0.92117,-0.56022 2.4401,-1.7153 3.4277,-2.03294 0.93272,0 1.85967,0 2.78662,0 0.39851,0.67283 0.6353,1.56224 0.96161,2.35347 0.0693,0 0.14149,0 0.21657,0 0.0491,-0.54 0.30033,-1.42363 0.74503,-1.60267 0.99914,-0.68439 3.75112,0.78257 4.07454,1.28214 0.73925,-0.283 1.86546,-0.49957 2.6769,-0.64107 1.28791,1.18107 3.87529,2.13401 5.46064,3.10716 0.93561,0.57177 2.00695,1.60556 3.21112,1.81925 0.0346,-5.06791 0.0722,-10.13871 0.10684,-15.20662 -0.98182,-0.57176 -0.75369,-2.03582 -0.75369,-2.03582 h 0.64685 c 0,0 0,-3.35551 0,-5.03037 -0.52268,-0.283 -0.75081,-2.57006 -0.75081,-2.57006 0,0 1.39476,-1.25614 1.60557,-2.24951 -0.26856,-0.40428 -0.32054,-1.18685 -0.4245,-1.7153 0.0693,0 0.13861,0 0.21369,0 0.47647,-0.30898 1.57957,-0.40716 2.14556,-0.53422 0.15883,-0.96449 1.17818,-1.68353 1.28214,-2.57005 0.0693,-0.58909 0,-3.53743 0,-3.53743 l 1.31102,-0.0837 2.73753,-13.45956 3.12738,13.29784 c 0,0 0.88652,-0.0606 1.28214,-0.0751 0,1.46407 0,2.92813 0,4.38931 0.73925,0.60352 1.00492,2.2293 2.14267,2.35636 0.19348,0.13283 0.61219,0.11551 0.9616,0.10973 -0.0895,0.81722 -0.54288,1.30813 -0.74502,2.03294 0.60641,0.53711 1.24748,0.90096 1.81925,1.60845 0.57176,0.70748 -0.47936,3.0754 -0.47936,3.0754 0,0 0.1646,3.96481 0.15594,4.7416 0.21369,0 0.42449,0 0.64106,0 0,-0.28011 0.41872,1.18395 -0.64106,2.03294 0,2.3939 0,14.58576 0,14.58576 0,0 2.60759,-0.15305 2.97721,0.0491 0.36963,0.20214 0.34364,1.32256 0.34364,1.32256 l 5.05636,0.10685 c 0,0 -0.26567,-1.59978 0.23968,-1.60845 8.28191,-0.12128 10.76532,-0.10396 10.76532,-0.10396 0,0 0.10685,0.32054 0.10685,-0.96449 0.93272,0 2.78662,0 2.78662,0 l 0.10396,2.6769 1.72396,-0.006 0.0202,-10.54876 c 0,0 -1.32256,-0.40716 -1.86256,-1.07133 -0.75369,-0.92407 -0.7999,-2.18888 -0.7999,-2.18888 l 1.99251,-0.0462 c 0,0 0.0491,-3.24866 0.0491,-5.47796 0,-1.7846 3.29775,-4.45283 3.29775,-4.45283 l -0.0144,-1.30813 -0.6353,0.0116 -0.0375,-1.92321 1.38899,-0.0202 c 0,0 -0.0289,-0.5862 0.27144,-1.03091 0.34075,-0.50824 0.91251,-0.85765 0.91251,-0.85765 l 0.10685,-12.63656 h -0.64396 c 0,0 -0.0866,-0.55733 0.0809,-0.88941 0.12706,-0.26278 0.52556,-0.30899 0.52556,-0.30899 0,0 -0.0837,-0.95294 0.0751,-1.57957 0.12128,-0.46203 0.56599,-0.66994 0.56599,-0.66994 l 0.0433,4.73582 c 0,0 1.14064,0.20503 1.64888,0.85476 0.45048,0.58043 0.27433,1.60845 0.27433,1.60845 0,0 -0.11262,-0.50246 -1.92609,-0.64107 -0.0578,3.04074 -0.0347,9.69111 -0.0347,9.69111 0,0 0.43605,0.28588 0.64107,0.74214 0.1877,0.41583 0.21658,1.00781 0.21658,1.00781 l 1.79904,0.003 0.026,1.93187 -0.62374,-0.0144 -0.052,1.35144 c 0,0 2.43144,2.03005 2.47765,4.54812 0.052,2.60182 0.0144,5.36246 0.0144,5.36246 l 1.96074,0.003 c 0,0 0.0318,1.11176 -0.55155,1.89144 -0.61219,0.81433 -1.83946,1.30813 -1.83946,1.30813 l -0.0202,6.48865 14.51357,0.0607 0.64107,2.35636 5.71764,0.12994 -0.0693,-1.27636 c 0,0 1.64599,0.0433 1.94054,-0.0231 0.0404,-0.25123 -0.0231,-0.6584 -0.0231,-0.6584 l 1.74995,0.009 0.75369,2.4632 1.81925,0.10974 1.60267,-0.96449 c 0,0 0,-7.27989 0,-10.92128 0,-9.10491 0,-27.31185 0,-27.31185 l 2.7231,-0.052 c 0,0 -0.21369,-1.57668 0.53134,-2.52673 0.89518,-1.15219 2.86459,-1.66332 4.13807,-0.84321 2.16866,1.39765 1.37454,3.25732 1.37454,3.25732 l 3.33241,-0.0462 c 0,0 0,0.0693 0,0.10973 0.14727,0.23102 0.11262,37.26575 0.11262,37.26575 0,0 -0.0202,0.74791 0.8432,0.78256 0.78835,0.0318 0.86631,-0.35518 0.86631,-0.35518 l 0.0318,-37.76532 2.76641,0.10107 c 0,0 -0.83165,-3.51144 2.73465,-3.63272 3.71647,-0.12706 3.29775,3.56342 3.29775,3.56342 l 3.26021,0.0375 -0.0173,33.94489 h 0.67283 v 6.37603 l 4.5539,-0.0578 -0.0549,-21.09752 c 0,0 4.99571,0 7.49646,0 0,6.994 0.0231,21.15239 0.0231,21.15239 l 1.07711,-0.0578 -0.0318,-17.88351 h 7.81988 v 17.91816 l 7.73326,-0.026 -0.13283,-5.57615 c 0,0 2.92812,0 4.39218,0 0,-5.99775 0,-17.98747 0,-17.98747 l 1.81925,-2.67978 0.8923,-4.72139 0.60642,4.72139 1.96363,2.73176 1.78749,-2.33326 16.05849,-3.39594 2.6769,0.43027 1.81924,-3.96481 0.62375,-4.66363 0.27722,-0.052 0.59775,5.03903 c 0,0 1.51027,2.21487 2.14267,3.21112 0.79701,1.25904 1.25904,1.88567 1.25904,1.88567 l 1.09732,0.36096 0.28877,-0.52845 c 0,0 0.53134,0.0664 0.78257,0.10107 0,0.10974 0.36963,0.69016 0.36963,0.69016 0,0 6.15079,2.93679 9.154,4.12941 0.90962,0.36096 1.9001,0.29744 1.9001,0.29744 0,0 -0.13572,0.71326 -0.0202,0.89807 0.1184,0.18481 0.64973,0.67283 1.44962,1.16374 0,0.84321 -0.20213,6.15369 0,7.06331 -0.0375,2.60759 -0.11262,8.00181 -0.11262,8.00181 0,0 6.97957,-0.078 10.17625,-0.078 0.0693,-0.14149 0.13572,-0.43026 0.13572,-0.43026 0,0 0.4707,0.0895 0.61797,-0.10396 l 3.91861,-5.3509 c 0,0 -0.23968,-0.009 1.18684,-0.13284 0.19636,2.58449 3.76267,0.79123 3.76267,0.79123 0,0 0.0606,-0.1646 0.0664,-0.32631 -0.16749,-0.0982 -0.10396,-0.0318 -0.13284,-0.26567 0.0404,0 0.0895,0 0.13284,0 0.1877,-0.12128 0.61219,-0.17903 0.85765,-0.19925 -0.003,-0.38406 -0.10396,-1.31968 -0.0664,-1.38321 0.16171,-0.12705 0.38695,-0.18192 0.65839,-0.19925 0.19348,-1.33411 1.44096,-2.24374 2.52674,-2.69999 0.29454,-0.12418 0.85765,-0.21369 0.85765,-0.21369 0,0 -0.006,-0.0837 0.0982,-0.22813 0.0751,-0.10396 0.18481,-0.17326 0.18481,-0.17326 0,0 0.003,-0.26567 0.0231,-0.51401 0.0144,-0.17038 0.13861,-0.23102 0.13861,-0.23102 0,0 0.0606,0.12128 0.0751,0.20791 0.0202,0.16172 0.0202,0.50535 0.0202,0.50535 0,0 0.0982,0.0664 0.17615,0.15594 0.11262,0.12128 0.1877,0.28299 0.1877,0.28299 0,0 0.0982,-0.0491 0.13573,-0.16749 0.0722,-0.20502 0.10684,-0.60064 0.15016,-1.08288 0.0144,-0.20792 -0.13572,-0.21369 -0.13572,-0.21369 l -0.0173,-0.32054 c 0,0 0.62663,0.0462 1.1493,-0.30898 0.38118,-0.257 0.53711,-0.80567 1.15797,-1.33989 0.29166,-0.25123 0.69593,-0.34653 0.92406,-0.6584 0.27433,-0.38406 0.283,-1.20417 0.6584,-1.58246 0.33497,-0.33497 1.62,-0.68727 1.78171,-1.05401 -0.0231,-0.40427 0.0895,-0.62085 0.0895,-0.62085 0,0 0.0808,0.0173 0.0982,0.62374 0.17326,0.0491 0.33786,0.25701 0.33786,0.25701 0,0 0.0404,-0.0433 0.0404,-0.0664 0.21946,-0.36096 -0.0462,-1.22727 0.17903,-1.58823 0.3754,-0.34364 1.70086,-0.36385 1.89722,-0.78257 0.13861,-0.23102 -0.0346,-0.41583 -0.0693,-0.72481 0.20791,-0.0664 0.257,-0.15016 0.3985,-0.26567 0,-0.0866 0,-0.17904 0,-0.26567 0.86342,-0.078 0.82011,-0.55732 1.12331,-1.18684 0.11262,-0.23391 0.69594,-1.30235 1.44963,-2.17444 1.25615,-1.46406 4.21026,-3.33529 6.88138,-3.36705 0.003,0.0144 0.006,0.0144 0.0144,0 -0.003,0 -0.006,0 -0.0144,0 -0.0115,-0.0664 0.0347,-0.45049 0.17615,-0.76236 0.20214,-0.43604 0.64107,-0.78545 0.64107,-0.78545 l 0.21658,-2.60759 c 0,0 0.0924,0 0.13283,0 0.0578,0.0809 0.13284,0.13283 0.13284,0.13283 l -0.0664,2.57294 c 0,0 0.52845,0.36963 0.66128,0.72481 0.13284,0.35519 0.10396,0.64107 0.10396,0.64107 0,0 0.44759,0 0.69016,0.0838 0.50246,0.17614 1.17241,0.19058 1.7124,0.39561 1.18974,0.45048 2.2553,1.04246 3.23134,1.71529 0.64973,0.4476 2.05893,1.9492 2.44299,2.63936 0.20503,0.36674 0.60064,1.56802 0.92406,1.7124 0.11551,0.0895 0.34075,0.11262 0.46492,0.19925 0.10107,0.11551 0.0982,0.26567 0.19348,0.39851 0.11262,0.0664 0.22524,0.13283 0.33209,0.19925 0.0953,0.21658 -0.20214,0.27433 0.0664,0.45914 0.10107,0.0693 0.26856,0.0664 0.46203,0.0664 -0.006,-0.21369 -0.0289,-0.63818 -0.0289,-0.63818 l 0.69016,-0.0202 c 0,0 -0.10685,-0.0462 0,-0.13283 -0.0953,-0.0809 -0.1877,-0.10107 -0.26567,-0.19925 0.52267,-0.22813 0.3523,-1.44674 0.32631,-2.17733 -0.41583,-0.59197 -0.72481,-1.16951 -0.72481,-2.17443 0.0664,-0.0231 0.13283,-0.0462 0.19925,-0.0664 0.0866,-0.0346 0.43893,-0.10107 0.65839,-0.13283 0,-0.81145 0,-1.62867 0,-2.44011 -0.0982,-0.36962 -0.48224,-0.66128 -0.59198,-0.99048 -0.10106,-0.29454 -0.0346,-0.80855 -0.0664,-1.05401 0.19347,-0.10396 0.72481,-0.13283 0.72481,-0.13283 l 0.0953,-5.57615 c 0,0 0.58909,-5.32491 0.5631,-5.24117 0.21658,-0.77101 -0.12994,-1.52182 0.0693,-2.11091 0.0433,0 0.0837,0 0.12706,0 0.0144,0.7046 0.0722,1.44096 0.1646,2.16 0.31764,2.60182 1.02513,5.0939 1.02513,5.0939 l 0.13283,5.67433 c 0,0 0.47359,-0.0173 0.59198,0.0664 0.13572,0.20792 0.0722,0.79412 0.0635,1.12043 -0.69882,0.56021 -0.54289,2.10225 -0.52267,3.36417 0.38406,0.0693 0.84032,0.30032 0.84032,0.30032 0,0 0.0173,0.38406 -0.0318,0.7277 -0.0173,0.10396 -0.0549,0.32053 -0.20502,0.52556 -0.14728,0.20214 -0.40139,0.38984 -0.47647,0.55444 0,0.81433 0,1.48139 0,2.29283 0.1877,0.003 0.39561,0.21369 0.39561,0.21369 0,0 -0.15882,0.12128 -0.39561,0.13284 0,0.0664 0,0.13283 0,0.19925 0.23968,0 0.48513,0 0.7277,0 0,0.0404 0,0.0866 0,0.13283 0.47935,0.74214 -0.44471,1.51893 -0.59776,1.91166 0,0.37251 0,0.74502 0,1.12331 0.54289,0.28011 1.11177,1.30813 1.32257,1.91166 -0.20214,0.17903 -0.14439,0.74214 -0.13284,1.12331 0.55156,0.35519 1.12332,0.85476 1.58246,1.31679 0.10396,0.10973 0.12995,0.31476 0.26567,0.39562 0.25123,0.15304 0.73925,0.13861 0.98759,0.26567 -0.0462,0.20502 -0.10106,0.29743 -0.13283,0.52556 0.38695,-0.003 0.45337,-0.0982 0.79123,-0.12706 0.11262,-0.29744 0.24545,-0.22236 0.26567,-0.66129 0.0866,-0.19058 -0.0924,-0.55732 0.19925,-0.72481 0.026,0.22236 0.0664,0.84321 0.12995,0.99048 0.0808,0.18482 0.20213,0.12129 0.26566,0.39851 1.31102,0.0231 2.52963,1.04245 3.03209,1.91165 0.16748,0.28011 0.13572,0.6584 0.33208,0.92406 0.283,0.38118 0.70171,0.006 0.72481,0.72482 -0.10107,0.17037 -0.0808,0.73925 0.13284,0.85764 0.20214,0.12129 0.73636,0.11551 0.92406,0.19925 -0.0577,0.1877 -0.0895,0.16749 -0.13283,0.39562 0.15305,0 0.30609,0 0.46203,0 -0.0202,-4.57123 -0.0433,-9.14534 -0.0635,-13.71657 -0.22813,-0.7739 -0.71904,-0.85476 -0.72481,-2.04737 0.21657,-0.12129 0.92695,-0.30321 0.92695,-0.30321 0,0 -0.20792,-0.25701 -0.26856,-0.35519 0.29744,-0.23968 0.15305,-0.65262 0.12995,-1.05401 0,-0.48513 0,-0.97027 0,-1.44962 -0.0577,-0.14728 -0.3292,-0.26856 -0.39562,-0.39851 -0.13283,-0.25123 -0.0202,-0.43315 -0.13283,-0.72481 -0.0462,-0.0202 -0.0866,-0.0462 -0.12706,-0.0664 0,-0.26566 0,-0.52844 0,-0.79123 0.14439,-0.052 0.59198,0.0231 0.59198,0.0231 0,0 0,-0.22236 0,-0.28877 -0.19636,-0.10396 -0.28011,-0.12706 -0.33209,-0.39273 0.10107,-0.0346 0.11262,-0.0462 0.26567,-0.0664 0.0895,0.19059 0.11551,0.25412 0.33209,0.33209 0,-0.026 0,-0.0462 0,-0.0664 0.15016,-0.25123 0.0606,-1.00492 0,-1.38321 0.0982,-0.24256 0.0606,-1.51893 -0.0693,-1.78171 -0.10684,-0.20791 -0.41871,-0.38984 -0.52845,-0.59197 -0.1386,-0.26567 -0.12705,-0.93562 -0.13283,-1.32257 0.21369,-0.0809 0.36674,-0.12128 0.46492,-0.3292 -0.13861,-0.0809 -0.12417,-0.0462 -0.19925,-0.19925 0.10973,-0.0375 0.15593,-0.052 0.33208,-0.0664 0.0607,0.0606 0.19348,0.13284 0.19348,0.13284 v -4.28823 l 1.0569,-9.03272 c 0,0 0.0664,0.0144 0.13283,0.0664 0.0202,0 0.0664,0 0.0664,0 0,0 0.18481,3.59519 0.25123,3.90995 0.006,0.0318 0.0144,0.0462 0.0144,0.0462 l 0.56887,4.99861 c 0,0 0.0837,3.26021 0.0866,4.56545 0.20503,-0.006 0.41872,-0.009 0.53134,0.0635 0.34364,0.12128 0.28588,0.52844 0.26278,0.99048 -0.15882,0.14149 -0.0346,0.16748 -0.12995,0.3985 -0.0924,0.20503 -0.46203,0.56888 -0.53133,0.72481 0,1.12043 0,2.36503 0,3.48545 0.38984,-0.003 0.87497,-0.003 0.87497,-0.003 0,0 0.052,0.4707 0.052,0.73926 -0.15882,0.18192 -0.026,0.32053 -0.13283,0.59775 -0.0982,0.23968 -0.59198,0.59198 -0.59198,0.59198 l -0.003,2.30727 c 0,0 0.257,0.26278 0.33208,0.52556 -0.0202,0 -0.0462,0 -0.0664,0 0,0.0202 0,0.0462 0,0.0664 -0.15883,-0.0231 -0.10107,-0.0404 -0.26567,0 0.0231,0.0664 0.052,0.23101 0.052,0.23101 l 0.79411,0.15594 c 0,0 0.0375,0.27433 -0.10973,0.62374 -0.2339,0.55733 -0.69016,1.2908 -0.69016,1.2908 l 0.15016,14.38363 0.6584,0.0664 0.0664,0.26567 c 0,0 -0.34075,0.23968 -0.39851,0.52556 0.0722,0.0462 0.28588,0.21658 0.45915,0.30032 0.18481,0.0953 0.33497,0.0982 0.33497,0.0982 0,0 0.0491,-0.17037 0.12417,-0.3032 0.0491,-0.0895 0.13861,-0.16172 0.13861,-0.16172 0,0 0.0606,0.0607 0.0895,0.19926 0.0346,0.15882 0.0375,0.3985 0.0375,0.3985 0,0 1.39187,0.5169 1.77305,1.08289 0.3032,0.44181 0.18192,0.88363 0.8663,0.9616 -0.0115,0.0809 -0.0549,0.14727 -0.0664,0.22813 -0.009,0.0722 -0.0173,0.13572 0,0.2339 0.0144,0.10107 0.46492,0.0664 0.46492,0.0664 0,0 0.30898,-0.30032 0.66994,-0.48514 0.26856,-0.13861 0.62086,-0.23967 0.62086,-0.23967 0,0 -0.0318,-0.19637 0.0173,-0.4707 0.0318,-0.17904 0.1877,-0.31765 0.1877,-0.31765 0,0 0.11551,0.12706 0.12995,0.283 0.0289,0.27433 0.009,0.49091 0.009,0.49091 0,0 0.66706,0.17326 1.15508,0.50246 0.20503,0.13861 0.44471,0.40427 0.57177,0.64973 0.12417,0.24545 0.17615,0.52556 0.17615,0.52556 0,0 0.0808,0.0664 0.19347,0.0722 0.0491,0.003 0.10685,-0.0606 0.10685,-0.0606 0,0 0.23101,-0.59198 0.72481,-0.98759 0.50246,-0.40139 1.15797,-0.4938 1.15797,-0.4938 0,0 0,-0.24257 0.0346,-0.47358 0.0202,-0.16171 0.16749,-0.23968 0.16749,-0.23968 0,0 0.0924,0.0693 0.12705,0.20503 0.0462,0.1877 0.003,0.45048 0.0462,0.49957 0.15305,0.0866 0.78256,0.14438 1.18973,0.61219 0.30321,0.34941 0.57465,0.78257 0.57465,0.78257 0,0 0.22235,0.0982 0.32054,0.13283 0.0491,-0.51979 0.54288,-1.02802 1.06267,-1.337 0.49957,-0.30032 0.99337,-0.35808 0.99337,-0.35808 0,0 0,-0.32631 0.0318,-0.41583 0.0664,-0.20502 0.16171,-0.23101 0.16171,-0.23101 0,0 0.0866,0.10973 0.10974,0.24256 0.0289,0.14728 -0.006,0.32054 0.0144,0.38118 0.25701,0.10107 0.77391,0.17037 1.41498,0.7277 0.40427,0.34941 0.52267,0.92118 0.52267,0.92118 0,0 0.15305,0 0.17326,0 0,-4.75604 0,-8.50716 0,-8.50716 0,0 -0.0664,-0.0895 -0.1646,-0.14728 -0.0866,-0.052 -0.20214,-0.0664 -0.2339,-0.11839 0,-0.10973 0,-0.21947 0,-0.32631 -0.20214,-0.41583 -0.32631,-0.53711 -0.32631,-1.25615 0.10396,-0.0491 0.53711,-0.15882 0.79123,-0.19348 -0.003,-0.97026 -0.0664,-3.19379 -0.0664,-3.497 -0.026,-0.0664 -0.23101,-0.19347 -0.26567,-0.25989 -0.20791,-0.43604 -0.30609,-1.10888 -0.26278,-1.58246 0.19348,-0.0664 0.79412,-0.0664 0.79412,-0.0664 l -0.0982,-3.29775 0.80278,-6.52908 0.0837,-1.25615 c 0,0 0.0202,-0.0231 0.13284,-0.0664 0,0.0664 0,1.31968 0,1.31968 l 0.99048,6.33272 v 3.53454 l 0.60064,0.0289 c 0,0 0.1877,1.2446 -0.26856,1.71241 -0.0462,0.0491 -0.26567,0.13283 -0.26567,0.13283 l 0.0462,3.45946 c 0,0 0.63529,0.0809 0.82877,0.12129 -0.0693,0.51689 -0.11551,1.76727 -0.74214,1.82791 0,0.92406 0,1.84812 0,2.77219 0.5631,0.40139 0.96738,0.47069 1.58246,0.46203 0,-0.0664 0,-0.13283 0,-0.19925 0.0808,-0.0578 0.0722,-0.052 0.13283,-0.12995 0.70171,0.1415 0.81722,-0.31187 1.18973,-0.19925 0.0751,0.0231 0.38406,0.21947 0.45914,0.26278 0.10396,-0.003 0.0751,-0.10973 0.13284,-0.12994 0.13283,0.0289 0.19636,0.17903 0.39273,0.12994 0.12994,-0.0289 0.1877,-0.22813 0.26566,-0.26278 0.10974,0.0202 0.21947,0.0433 0.33209,0.0664 0.15305,-0.0231 0.63241,-0.23102 0.66128,-0.26567 0.15594,-0.22235 0.0173,-0.28877 0.39273,-0.33209 0,-0.0866 0,-0.17326 0,-0.25989 0.48513,0.009 0.58043,0.15594 0.92406,0 0.10107,0.052 0.33786,0.23102 0.52556,0.19925 0.17615,-0.0318 0.33498,-0.29165 0.46492,-0.33208 0.24835,-0.0809 0.12129,0.15593 0.33209,0.13283 0.11839,-0.0173 0.0202,-0.14727 0.19347,-0.0664 0.13284,0.15305 0.23102,0.4938 0.33209,0.6584 0.30032,-0.0809 0.47936,-0.24257 0.79123,-0.33209 0.0982,0.16749 0.0982,0.21081 0.32631,0.26567 0.0606,-0.0433 0.2108,-0.0866 0.26567,-0.13283 0.0635,-0.10685 0.0577,-0.283 0.13283,-0.45915 0.28011,0.0809 0.28011,-0.0202 0.59198,-0.0664 0.0924,0.24256 0.5631,0.57176 0.79412,0.65839 0.0866,-0.10684 0.0433,-0.0722 0.19636,-0.13283 0.0982,0.16749 0.0982,0.2108 0.32631,0.26567 0,-1.44963 0,-2.89925 0,-4.35176 -0.74791,-0.41872 -0.76813,-2.07626 -0.76813,-2.07626 l 0.90096,-0.0202 c 0,0 -0.0606,-4.18428 -0.0606,-3.57786 -0.0433,-0.0953 -0.28299,-0.23102 -0.33208,-0.33209 -0.22813,-0.45914 -0.26278,-0.88652 -0.26278,-1.58245 0.0202,0 0.0433,0 0.0635,0 0,-0.0202 0,-0.0404 0,-0.0664 0.22235,-0.0202 0.43893,-0.0404 0.66128,-0.0606 0.0202,-0.0664 0.0404,-0.13284 0.0606,-0.19925 -0.1646,-0.0578 -0.3061,-0.0491 -0.39273,-0.19926 0.11551,-0.0375 0.20503,-0.0606 0.39273,-0.0664 -0.0549,-5.74652 0.66128,-8.64 0.66128,-8.64 0,0 0.20214,-0.86053 0.26278,-1.12042 0.0722,-0.31765 -0.0982,-0.47358 -0.12994,-0.6584 -0.0982,-0.51401 0.26278,-0.79123 0.26278,-0.79123 0,0 0.1646,0.38407 0.17037,0.71615 0.006,0.29455 -0.14727,0.5169 -0.10396,0.73637 0.0924,0.4909 0.0664,1.01069 0.19926,1.58245 0.62085,2.69423 0.59486,5.64834 0.59197,8.17796 0.10974,0 0.21947,0 0.33209,0 0,0.26567 -0.26567,0.19926 -0.26567,0.19926 0,0 0,0.17615 0,0.26566 0.24257,0.0202 0.48225,0.0433 0.72481,0.0607 0.13572,0.39561 0.15016,0.95294 -0.32631,1.78171 -0.0895,0.0664 -0.17903,0.13283 -0.26567,0.19925 0,0.0808 0,3.56053 0,3.56053 l 0.79123,0.052 c 0,0 0.19926,1.1493 -0.39272,1.92898 -0.0491,0.0606 -0.23102,0.052 -0.26567,0.13283 0,0.41583 0,0.83455 0,1.25326 0,1.91455 0.17615,5.38267 0,5.01016 0.11551,0.24834 0.38695,0.36096 0.45914,0.7277 0.0664,0 0.13284,0 0.19925,0 0.0722,0.13283 0.12129,0.25123 0.26278,0.3292 0.0809,-0.052 0.11262,-0.0491 0.26567,-0.0664 0.0202,0.37251 0.0606,0.41583 -0.0664,0.6584 0.23967,0.0462 0.18192,0 0.26566,0.19925 0.0866,0.17037 -0.0404,0.29454 -0.0664,0.59198 0.23101,-0.026 0.55732,-0.13573 0.72481,-0.2599 0.0577,-0.0693 0.0231,-0.0202 0.0664,-0.13283 -0.11262,-0.16749 -0.12706,-0.54 -0.13284,-0.79123 0.0231,0 0.0462,0 0.0664,0 0,-0.0202 0,-0.0462 0,-0.0664 0.11839,0.0404 0.0635,0.0144 0.13283,0.0664 0.20503,0.12128 0.12417,0.23679 0.39851,0.32631 0.006,-0.17037 0.0289,-0.22235 0.0635,-0.32631 0.11839,0.0404 0.0606,0.009 0.13283,0.0664 0.11551,0.1155 0.0982,0.18192 0.26278,0.25989 0.10684,-0.19059 0.12995,-0.27433 0.3985,-0.32631 0,0.0202 0,0.0404 0,0.0664 0.0202,0 0.0433,0 0.0635,0 0,0.0664 0,0.13283 0,0.19347 0.0693,0 0.13284,0 0.19925,0 0,-0.17326 0,-0.34941 0,-0.52556 0.0866,0 0.17904,0 0.26567,0 0.0231,-0.13572 0.0173,-0.12417 0.0664,-0.19925 0.18192,-0.12128 0.27144,-0.0693 0.39272,-0.26278 0.0664,0.0202 0.13284,0.0433 0.19926,0.0664 0.0664,0.28588 0.11839,0.36962 0.46203,0.39561 0,0.17904 0,0.3523 0,0.52556 0.0693,0.0231 0.13283,0.0462 0.19925,0.0664 0,0.0231 0,0.0462 0,0.0664 0.0231,0 0.0462,0 0.0664,0 0,-0.0433 0,-0.0866 0,-0.13284 -0.0866,-0.17903 -0.0866,-0.74214 -0.0664,-0.98759 -0.13572,-0.0231 -0.12417,-0.0173 -0.19925,-0.0664 -0.0202,0 -0.0433,0 -0.0635,0 0,-0.0202 0,-0.0462 0,-0.0664 0.13283,-0.0895 0.13283,-0.0866 0.19636,-0.26567 -0.2108,-0.11551 -0.3754,-0.21369 -0.46203,-0.45915 0.33497,-0.009 1.01936,-0.31476 1.12331,-0.26567 0.0202,0.0664 0.0404,0.13284 0.0606,0.19926 0.15304,-0.0202 0.30609,-0.0462 0.46492,-0.0664 0.32342,0.0693 0.41582,0.27144 0.72481,0.26567 0.0693,-0.42738 -0.0231,-0.43605 0.0664,-0.79123 0.19926,0.0231 0.43894,-0.0693 0.59487,-0.26567 0.13861,0.0837 0.15305,0.13572 0.32631,0.19925 0.1184,-0.18192 0.26567,-0.18192 0.3985,-0.33208 0.16171,0.0664 0.3754,0.1155 0.46203,0.26566 0.0924,0.14439 0.0375,0.21658 0,0.39273 0.0693,0 0.13284,0 0.20214,0 0.12417,-0.2339 0.15305,-0.31476 0.52556,-0.32631 0.283,0.19059 0.49091,0.052 0.72482,0.12995 0.1646,0.0578 0.21946,0.24834 0.39272,0.32919 0.13573,-0.28588 0.80856,-0.32919 0.92695,-0.25989 0.40139,0.0693 0.52268,0.33498 0.78835,0.52556 0.0578,-0.21369 -0.0318,-0.10107 0.13283,-0.19925 0,8.46385 0,13.44801 0,21.91186 -113.48076,-0.0144 -126.58802,0.0924 -177.93707,0.0924 z M 56.157193,562.27279 c 0,0 -0.3754,4.4586 -1.56802,7.72748 -1.14064,3.13026 -2.754864,5.4924 -2.754864,5.4924 l 4.383526,-4.47593 -0.06064,-8.74395 z m 0.181925,11.13207 -5.324915,3.68471 c 0,0 -0.129946,0.25989 3.577858,0.25989 0,1.39187 0,2.78374 0,4.17561 0.265668,0.0895 1.778822,0.0722 1.778822,0.0722 l -0.03177,-8.1924 z m 5.928445,4.25358 c 1.224383,0.0202 1.045346,0.78257 0.999143,1.72685 1.05401,-0.009 2.33326,-0.0664 3.214008,0.10973 0.08952,0.29743 0.04331,1.12909 0.21369,1.39187 0.231016,0.15305 0.782566,0.1184 1.17818,0.10685 0.308984,-0.38984 0.857647,-0.0375 1.81925,0 0,-0.0375 0,-0.0722 0,-0.10685 0.03465,0 0.07219,0 0.106845,0 0.0029,-0.36962 -0.0231,-0.73636 0.21369,-0.85765 1.178181,0 2.353474,0 3.531655,0 0.11262,0.0866 0.03176,0.0375 0.216577,0.10974 -0.0058,0.30898 -0.0058,0.5862 0.103957,0.7508 0.340748,0.21946 1.296576,0.12128 1.81925,0.10684 0.294545,-0.85764 0.167486,-3.65005 0.167486,-3.65005 0,0 2.356362,0.0173 3.476789,0.009 0.0029,-0.0202 0.01155,-0.0375 0.01733,-0.0549 0.231016,-0.73636 -0.01733,-1.57668 -0.01733,-1.57668 0,0 -5.039033,-2.78086 -9.679564,-4.30267 -2.757752,-0.90385 -7.487801,-0.34942 -7.487801,-0.34942 0,0 0.106845,4.08899 0.106845,6.58684 z m 12.951325,-8.73817 c -2.67112,0.3061 -6.038176,-0.30898 -6.038176,-0.30898 0,0 3.36128,0.90385 5.963096,1.53625 2.226415,0.54289 4.233366,0.83455 4.233366,0.83455 l -0.0058,-3.65583 c -0.0029,0 -1.954971,1.33989 -4.15251,1.59401 z m -0.522673,-0.64684 c -0.701711,-0.36385 -1.715293,-0.86631 -3.06096,-1.72107 -0.58909,0.73636 -1.267699,1.3832 -1.267699,1.3832 0,0 2.108019,0.39562 4.328659,0.33787 z m -12.422877,-0.75947 c 0.346524,0.16171 0.583315,0.283 0.938502,0.38118 2.48342,0.66706 5.062135,-0.0144 5.062135,-0.0144 0,0 -1.928983,-0.88652 -2.876148,-1.61134 -1.804811,-1.3832 -3.138928,-3.05807 -3.138928,-3.05807 0,0 -0.0029,3.60674 0.01444,4.30267 z m -5.218071,14.01111 c 0.814331,0.283 1.287914,0 1.287914,0 0,0 0,-0.35807 0,-0.53422 0.606416,0 1.305239,0 1.911656,0 0.265668,-0.79989 0.07508,-2.22064 0.0693,-3.21401 0.259893,-0.0895 1.230159,-0.0693 1.230159,-0.0693 l -0.01733,-6.41069 c 0,0 -0.961604,0.18192 -1.992512,0.58042 -1.192619,0.45626 -2.486308,1.13776 -2.486308,1.13776 0,0 -0.0029,5.93999 -0.0029,8.51004 z m 0.03465,-11.09453 1.146416,-2.31594 1.09155,-2.35925 c 0,0 -2.281282,-3.12737 -2.304383,-3.15048 -0.0087,1.81348 0.06642,7.82567 0.06642,7.82567 z m 2.466094,-5.33358 1.209945,-3.04364 -3.647162,0.0866 2.437217,2.95701 z m -2.567164,-3.40749 c 0,0 2.991656,-0.0318 3.520104,-0.0462 0.04043,-0.10396 0.07797,-0.21946 0.121284,-0.34364 0,0 -1.149304,-1.30524 -2.102245,-2.80106 -0.860534,-1.34856 -1.533367,-2.90791 -1.533367,-2.90791 l -0.0058,6.09881 z m 4.143847,-8.52737 h -4.138071 v 1.21283 c 0,0 0.938502,1.96941 1.980961,3.61251 0.869197,1.363 2.145559,2.89637 2.145559,2.89637 l 0.01155,-7.72171 z m -0.996256,12.39111 1.325454,1.36588 0.09818,-4.62031 -1.423635,3.25443 z m 1.313903,2.26107 -1.703742,-1.74417 -1.596897,3.86085 c 0,0 0.886523,-0.46492 1.74417,-0.78256 0.822994,-0.30321 1.617111,-0.46203 1.617111,-0.46203 l -0.06064,-0.87209 z m 4.242028,-6.22588 c -1.697966,-2.07914 -2.792404,-4.54523 -3.421922,-6.30384 l -0.0058,7.13261 c 0,0 2.018501,2.12824 3.791547,3.32952 1.56802,1.06267 3.453687,1.7124 3.453687,1.7124 0,0 0.571765,-0.48224 1.386095,-1.38609 -1.819249,-1.21861 -3.80021,-2.76642 -5.203632,-4.4846 z m 10.560312,-2.88481 c -1.192619,3.09562 -2.98588,5.73208 -4.216039,7.33764 1.697967,1.08289 3.21112,1.87412 3.959034,2.25241 1.833688,-0.36096 3.375719,-1.86545 3.375719,-1.86545 l 0.08374,-19.14544 c 0,-0.003 -1.325453,6.55507 -3.202457,11.42084 z m 17.170253,-3.51144 -4.66652,-0.0375 c 0,0 -1.24171,3.0754 -2.497859,5.34224 -0.863422,1.56514 -1.85679,3.13316 -1.85679,3.13316 l 5.414434,10.01742 c 0,0 2.982992,0.81144 3.543206,0.90385 0,-6.13925 0.06353,-19.35913 0.06353,-19.35913 z m -0.05198,-3.27176 v -12.41421 c 0,0 -0.554438,2.30149 -1.316791,4.92063 -1.004919,3.4508 -2.281281,7.44738 -2.281281,7.44738 l 3.598072,0.0462 z M 83.98594,562.9976 c 0,0 1.386095,-2.09936 2.440105,-4.12363 0.981817,-1.89433 1.645988,-3.72224 1.645988,-3.72224 l -6.130583,0.0289 v 3.60962 l 2.04449,4.20738 z m -2.03294,2.08492 c 0,0 0.560214,-0.40428 1.028021,-0.84321 0.343636,-0.32342 0.594866,-0.72192 0.594866,-0.72192 l -1.614224,-3.39305 -0.0087,4.95818 z m 4.76759,15.80148 c 0.831657,0.28011 2.298608,0.11551 3.320853,0.10685 0,-0.0375 0,-0.0722 0,-0.10685 0.03465,0 0.0693,0 0.106844,0 -0.106844,-0.0866 -0.03176,-0.0404 -0.210801,-0.10973 -1.074224,-0.53422 -2.14556,-1.07134 -3.216896,-1.60556 0,0.57176 0,1.14353 0,1.71529 z m 0.06064,-8.04801 1.784597,0.32342 c 0,0 -0.499572,-0.94139 -0.883636,-1.69797 -0.386951,-0.75657 -1.157967,-2.16577 -1.157967,-2.16577 l 0.257006,3.54032 z m -0.505348,-3.91572 c 0,0 -0.404277,-0.97027 -0.99048,-2.03872 -0.658395,-1.18973 -1.259036,-2.36791 -1.259036,-2.36791 0,0 -0.436043,0.48802 -0.961604,0.94428 C 82.547864,565.9084 81.93856,566.33 81.93856,566.33 l 0.0087,5.17476 c 0,0 1.045347,0.75658 1.39187,0.0693 0.346524,-0.68727 0.135722,-2.54983 0.135722,-2.54983 l 2.801067,-0.10396 z m -4.270905,11.85689 c 0.242567,0.27433 0.756577,0.23679 1.285026,0.21658 0.291657,-0.85765 0.115507,-2.37369 0.109732,-3.4277 -0.103957,-0.15305 -0.103957,-0.3523 -0.109732,-0.64107 -0.488021,-0.0144 -1.056898,-0.009 -1.388983,0.10396 0.0087,0.052 0.103957,3.74823 0.103957,3.74823 z m 11.397744,-50.09579 -11.599883,0.11551 0.22524,21.07731 6.835182,0.0318 c 0,0 1.293689,-3.83197 2.451656,-7.71593 1.123314,-3.77133 2.110907,-7.59175 2.110907,-7.59175 l -0.0231,-5.9169 z m 6.638819,29.30436 c -3.089838,-8.20106 -4.646307,-16.55517 -4.646307,-16.55517 l 0.106845,31.56543 13.505762,4.58855 c 0,0 -5.29892,-9.85571 -8.9663,-19.59881 z m 69.01021,-0.73347 c 0,-0.18482 -0.15016,-0.33498 -0.33209,-0.33498 -0.18481,0 -0.33497,0.15016 -0.33497,0.33498 v 3.06384 c 0,0.18482 0.15016,0.33498 0.33497,0.33498 0.18193,0 0.33209,-0.15016 0.33209,-0.33498 v -3.06384 z m 1.28791,0 c 0,-0.18482 -0.15016,-0.33498 -0.33497,-0.33498 -0.18192,0 -0.33209,0.15016 -0.33209,0.33498 v 3.06384 c 0,0.18482 0.15017,0.33498 0.33209,0.33498 0.18481,0 0.33497,-0.15016 0.33497,-0.33498 v -3.06384 z m 1.23305,0 c 0,-0.18482 -0.15016,-0.33498 -0.33497,-0.33498 -0.18193,0 -0.33498,0.15016 -0.33498,0.33498 v 3.06384 c 0,0.18482 0.15305,0.33498 0.33498,0.33498 0.18481,0 0.33497,-0.15016 0.33497,-0.33498 v -3.06384 z m 1.12331,0 c 0,-0.18482 -0.15304,-0.33498 -0.33497,-0.33498 -0.18481,0 -0.33497,0.15016 -0.33497,0.33498 v 3.06384 c 0,0.18482 0.15016,0.33498 0.33497,0.33498 0.18193,0 0.33497,-0.15016 0.33497,-0.33498 v -3.06384 z m 1.1522,0 c 0,-0.18482 -0.15016,-0.33498 -0.33498,-0.33498 -0.18192,0 -0.33208,0.15016 -0.33208,0.33498 v 3.06384 c 0,0.18482 0.15016,0.33498 0.33208,0.33498 0.18482,0 0.33498,-0.15016 0.33498,-0.33498 v -3.06384 z m 1.16663,0 c 0,-0.18482 -0.15016,-0.33498 -0.33209,-0.33498 -0.18481,0 -0.33497,0.15016 -0.33497,0.33498 v 3.06384 c 0,0.18482 0.15016,0.33498 0.33497,0.33498 0.18193,0 0.33209,-0.15016 0.33209,-0.33498 v -3.06384 z m 1.32256,0 c 0,-0.18482 -0.15016,-0.33498 -0.33497,-0.33498 -0.18193,0 -0.33497,0.15016 -0.33497,0.33498 v 3.06384 c 0,0.18482 0.15304,0.33498 0.33497,0.33498 0.18481,0 0.33497,-0.15016 0.33497,-0.33498 v -3.06384 z m 69.2441,-14.49047 c 0,-0.3523 -0.28588,-0.63818 -0.64107,-0.63818 -0.34941,0 -0.63529,0.28588 -0.63529,0.63818 v 2.16577 c 0,0.3523 0.28588,0.63818 0.63529,0.63818 0.35808,0 0.64107,-0.28588 0.64107,-0.63818 v -2.16577 z m 0,5.05636 c 0,-0.3523 -0.28588,-0.63818 -0.64107,-0.63818 -0.34941,0 -0.63529,0.28588 -0.63529,0.63818 v 2.16577 c 0,0.3523 0.28588,0.63818 0.63529,0.63818 0.35808,0 0.64107,-0.28588 0.64107,-0.63818 v -2.16577 z m 0,5.05347 c 0,-0.3523 -0.28588,-0.63818 -0.64107,-0.63818 -0.34941,0 -0.63529,0.28588 -0.63529,0.63818 v 2.16577 c 0,0.3523 0.28588,0.63818 0.63529,0.63818 0.35808,0 0.64107,-0.28588 0.64107,-0.63818 v -2.16577 z m 0,5.05636 c 0,-0.3523 -0.28588,-0.63818 -0.64107,-0.63818 -0.34941,0 -0.63529,0.28588 -0.63529,0.63818 v 2.16577 c 0,0.3523 0.28588,0.63818 0.63529,0.63818 0.35808,0 0.64107,-0.28588 0.64107,-0.63818 v -2.16577 z m 0,5.05058 c 0,-0.3523 -0.28588,-0.63818 -0.64107,-0.63818 -0.34941,0 -0.63529,0.28588 -0.63529,0.63818 v 2.16866 c 0,0.3523 0.28588,0.63818 0.63529,0.63818 0.35808,0 0.64107,-0.28588 0.64107,-0.63818 v -2.16866 z m 0,5.05636 c 0,-0.3523 -0.28588,-0.63818 -0.64107,-0.63818 -0.34941,0 -0.63529,0.28588 -0.63529,0.63818 v 2.16577 c 0,0.3523 0.28588,0.63819 0.63529,0.63819 0.35808,0 0.64107,-0.28589 0.64107,-0.63819 v -2.16577 z m 2.56716,-25.27313 c 0,-0.3523 -0.28588,-0.63818 -0.63529,-0.63818 -0.35519,0 -0.64107,0.28588 -0.64107,0.63818 v 2.16577 c 0,0.3523 0.28588,0.63818 0.64107,0.63818 0.34941,0 0.63529,-0.28588 0.63529,-0.63818 v -2.16577 z m 0,5.05636 c 0,-0.3523 -0.28588,-0.63818 -0.63529,-0.63818 -0.35519,0 -0.64107,0.28588 -0.64107,0.63818 v 2.16577 c 0,0.3523 0.28588,0.63818 0.64107,0.63818 0.34941,0 0.63529,-0.28588 0.63529,-0.63818 v -2.16577 z m 0,5.05347 c 0,-0.3523 -0.28588,-0.63818 -0.63529,-0.63818 -0.35519,0 -0.64107,0.28588 -0.64107,0.63818 v 2.16577 c 0,0.3523 0.28588,0.63818 0.64107,0.63818 0.34941,0 0.63529,-0.28588 0.63529,-0.63818 v -2.16577 z m 0,5.05636 c 0,-0.3523 -0.28588,-0.63818 -0.63529,-0.63818 -0.35519,0 -0.64107,0.28588 -0.64107,0.63818 v 2.16577 c 0,0.3523 0.28588,0.63818 0.64107,0.63818 0.34941,0 0.63529,-0.28588 0.63529,-0.63818 v -2.16577 z m 0,5.05058 c 0,-0.3523 -0.28588,-0.63818 -0.63529,-0.63818 -0.35519,0 -0.64107,0.28588 -0.64107,0.63818 v 2.16866 c 0,0.3523 0.28588,0.63818 0.64107,0.63818 0.34941,0 0.63529,-0.28588 0.63529,-0.63818 v -2.16866 z m 0,5.05636 c 0,-0.3523 -0.28588,-0.63818 -0.63529,-0.63818 -0.35519,0 -0.64107,0.28588 -0.64107,0.63818 v 2.16577 c 0,0.3523 0.28588,0.63819 0.64107,0.63819 0.34941,0 0.63529,-0.28589 0.63529,-0.63819 v -2.16577 z m 2.6769,-25.27313 c 0,-0.3523 -0.28588,-0.63818 -0.63529,-0.63818 -0.35519,0 -0.64107,0.28588 -0.64107,0.63818 v 2.16577 c 0,0.3523 0.28588,0.63818 0.64107,0.63818 0.34941,0 0.63529,-0.28588 0.63529,-0.63818 v -2.16577 z m 0,5.05636 c 0,-0.3523 -0.28588,-0.63818 -0.63529,-0.63818 -0.35519,0 -0.64107,0.28588 -0.64107,0.63818 v 2.16577 c 0,0.3523 0.28588,0.63818 0.64107,0.63818 0.34941,0 0.63529,-0.28588 0.63529,-0.63818 v -2.16577 z m 0,5.05347 c 0,-0.3523 -0.28588,-0.63818 -0.63529,-0.63818 -0.35519,0 -0.64107,0.28588 -0.64107,0.63818 v 2.16577 c 0,0.3523 0.28588,0.63818 0.64107,0.63818 0.34941,0 0.63529,-0.28588 0.63529,-0.63818 v -2.16577 z m 0,5.05636 c 0,-0.3523 -0.28588,-0.63818 -0.63529,-0.63818 -0.35519,0 -0.64107,0.28588 -0.64107,0.63818 v 2.16577 c 0,0.3523 0.28588,0.63818 0.64107,0.63818 0.34941,0 0.63529,-0.28588 0.63529,-0.63818 v -2.16577 z m 0,5.05058 c 0,-0.3523 -0.28588,-0.63818 -0.63529,-0.63818 -0.35519,0 -0.64107,0.28588 -0.64107,0.63818 v 2.16866 c 0,0.3523 0.28588,0.63818 0.64107,0.63818 0.34941,0 0.63529,-0.28588 0.63529,-0.63818 v -2.16866 z m 0,5.05636 c 0,-0.3523 -0.28588,-0.63818 -0.63529,-0.63818 -0.35519,0 -0.64107,0.28588 -0.64107,0.63818 v 2.16577 c 0,0.3523 0.28588,0.63819 0.64107,0.63819 0.34941,0 0.63529,-0.28589 0.63529,-0.63819 v -2.16577 z m 2.57294,-25.27313 c 0,-0.3523 -0.28588,-0.63818 -0.64107,-0.63818 -0.34941,0 -0.63529,0.28588 -0.63529,0.63818 v 2.16577 c 0,0.3523 0.28588,0.63818 0.63529,0.63818 0.35519,0 0.64107,-0.28588 0.64107,-0.63818 v -2.16577 z m 0,5.05636 c 0,-0.3523 -0.28588,-0.63818 -0.64107,-0.63818 -0.34941,0 -0.63529,0.28588 -0.63529,0.63818 v 2.16577 c 0,0.3523 0.28588,0.63818 0.63529,0.63818 0.35519,0 0.64107,-0.28588 0.64107,-0.63818 v -2.16577 z m 0,5.05347 c 0,-0.3523 -0.28588,-0.63818 -0.64107,-0.63818 -0.34941,0 -0.63529,0.28588 -0.63529,0.63818 v 2.16577 c 0,0.3523 0.28588,0.63818 0.63529,0.63818 0.35519,0 0.64107,-0.28588 0.64107,-0.63818 v -2.16577 z m 0,5.05636 c 0,-0.3523 -0.28588,-0.63818 -0.64107,-0.63818 -0.34941,0 -0.63529,0.28588 -0.63529,0.63818 v 2.16577 c 0,0.3523 0.28588,0.63818 0.63529,0.63818 0.35519,0 0.64107,-0.28588 0.64107,-0.63818 v -2.16577 z m 0,5.05058 c 0,-0.3523 -0.28588,-0.63818 -0.64107,-0.63818 -0.34941,0 -0.63529,0.28588 -0.63529,0.63818 v 2.16866 c 0,0.3523 0.28588,0.63818 0.63529,0.63818 0.35519,0 0.64107,-0.28588 0.64107,-0.63818 v -2.16866 z m 0,5.05636 c 0,-0.3523 -0.28588,-0.63818 -0.64107,-0.63818 -0.34941,0 -0.63529,0.28588 -0.63529,0.63818 v 2.16577 c 0,0.3523 0.28588,0.63819 0.63529,0.63819 0.35519,0 0.64107,-0.28589 0.64107,-0.63819 v -2.16577 z m 6.00064,-25.27313 c 0,-0.3523 -0.28589,-0.63818 -0.64107,-0.63818 -0.3523,0 -0.63818,0.28588 -0.63818,0.63818 v 2.16577 c 0,0.3523 0.28588,0.63818 0.63818,0.63818 0.35518,0 0.64107,-0.28588 0.64107,-0.63818 v -2.16577 z m 0,5.05636 c 0,-0.3523 -0.28589,-0.63818 -0.64107,-0.63818 -0.3523,0 -0.63818,0.28588 -0.63818,0.63818 v 2.16577 c 0,0.3523 0.28588,0.63818 0.63818,0.63818 0.35518,0 0.64107,-0.28588 0.64107,-0.63818 v -2.16577 z m 0,5.05347 c 0,-0.3523 -0.28589,-0.63818 -0.64107,-0.63818 -0.3523,0 -0.63818,0.28588 -0.63818,0.63818 v 2.16577 c 0,0.3523 0.28588,0.63818 0.63818,0.63818 0.35518,0 0.64107,-0.28588 0.64107,-0.63818 v -2.16577 z m 0,5.05636 c 0,-0.3523 -0.28589,-0.63818 -0.64107,-0.63818 -0.3523,0 -0.63818,0.28588 -0.63818,0.63818 v 2.16577 c 0,0.3523 0.28588,0.63818 0.63818,0.63818 0.35518,0 0.64107,-0.28588 0.64107,-0.63818 v -2.16577 z m 0,5.05058 c 0,-0.3523 -0.28589,-0.63818 -0.64107,-0.63818 -0.3523,0 -0.63818,0.28588 -0.63818,0.63818 v 2.16866 c 0,0.3523 0.28588,0.63818 0.63818,0.63818 0.35518,0 0.64107,-0.28588 0.64107,-0.63818 v -2.16866 z m 0,5.05636 c 0,-0.3523 -0.28589,-0.63818 -0.64107,-0.63818 -0.3523,0 -0.63818,0.28588 -0.63818,0.63818 v 2.16577 c 0,0.3523 0.28588,0.63819 0.63818,0.63819 0.35518,0 0.64107,-0.28589 0.64107,-0.63819 v -2.16577 z m 2.56427,-25.27313 c 0,-0.3523 -0.28588,-0.63818 -0.63529,-0.63818 -0.35808,0 -0.64107,0.28588 -0.64107,0.63818 v 2.16577 c 0,0.3523 0.28588,0.63818 0.64107,0.63818 0.34941,0 0.63529,-0.28588 0.63529,-0.63818 v -2.16577 z m 0,5.05636 c 0,-0.3523 -0.28588,-0.63818 -0.63529,-0.63818 -0.35808,0 -0.64107,0.28588 -0.64107,0.63818 v 2.16577 c 0,0.3523 0.28588,0.63818 0.64107,0.63818 0.34941,0 0.63529,-0.28588 0.63529,-0.63818 v -2.16577 z m 0,5.05347 c 0,-0.3523 -0.28588,-0.63818 -0.63529,-0.63818 -0.35808,0 -0.64107,0.28588 -0.64107,0.63818 v 2.16577 c 0,0.3523 0.28588,0.63818 0.64107,0.63818 0.34941,0 0.63529,-0.28588 0.63529,-0.63818 v -2.16577 z m 0,5.05636 c 0,-0.3523 -0.28588,-0.63818 -0.63529,-0.63818 -0.35808,0 -0.64107,0.28588 -0.64107,0.63818 v 2.16577 c 0,0.3523 0.28588,0.63818 0.64107,0.63818 0.34941,0 0.63529,-0.28588 0.63529,-0.63818 v -2.16577 z m 0,5.05058 c 0,-0.3523 -0.28588,-0.63818 -0.63529,-0.63818 -0.35808,0 -0.64107,0.28588 -0.64107,0.63818 v 2.16866 c 0,0.3523 0.28588,0.63818 0.64107,0.63818 0.34941,0 0.63529,-0.28588 0.63529,-0.63818 v -2.16866 z m 0,5.05636 c 0,-0.3523 -0.28588,-0.63818 -0.63529,-0.63818 -0.35808,0 -0.64107,0.28588 -0.64107,0.63818 v 2.16577 c 0,0.3523 0.28588,0.63819 0.64107,0.63819 0.34941,0 0.63529,-0.28589 0.63529,-0.63819 v -2.16577 z m 2.67979,-25.27313 c 0,-0.3523 -0.28589,-0.63818 -0.63819,-0.63818 -0.3523,0 -0.63818,0.28588 -0.63818,0.63818 v 2.16577 c 0,0.3523 0.28588,0.63818 0.63818,0.63818 0.3523,0 0.63819,-0.28588 0.63819,-0.63818 v -2.16577 z m 0,5.05636 c 0,-0.3523 -0.28589,-0.63818 -0.63819,-0.63818 -0.3523,0 -0.63818,0.28588 -0.63818,0.63818 v 2.16577 c 0,0.3523 0.28588,0.63818 0.63818,0.63818 0.3523,0 0.63819,-0.28588 0.63819,-0.63818 v -2.16577 z m 0,5.05347 c 0,-0.3523 -0.28589,-0.63818 -0.63819,-0.63818 -0.3523,0 -0.63818,0.28588 -0.63818,0.63818 v 2.16577 c 0,0.3523 0.28588,0.63818 0.63818,0.63818 0.3523,0 0.63819,-0.28588 0.63819,-0.63818 v -2.16577 z m 0,5.05636 c 0,-0.3523 -0.28589,-0.63818 -0.63819,-0.63818 -0.3523,0 -0.63818,0.28588 -0.63818,0.63818 v 2.16577 c 0,0.3523 0.28588,0.63818 0.63818,0.63818 0.3523,0 0.63819,-0.28588 0.63819,-0.63818 v -2.16577 z m 0,5.05058 c 0,-0.3523 -0.28589,-0.63818 -0.63819,-0.63818 -0.3523,0 -0.63818,0.28588 -0.63818,0.63818 v 2.16866 c 0,0.3523 0.28588,0.63818 0.63818,0.63818 0.3523,0 0.63819,-0.28588 0.63819,-0.63818 v -2.16866 z m 0,5.05636 c 0,-0.3523 -0.28589,-0.63818 -0.63819,-0.63818 -0.3523,0 -0.63818,0.28588 -0.63818,0.63818 v 2.16577 c 0,0.3523 0.28588,0.63819 0.63818,0.63819 0.3523,0 0.63819,-0.28589 0.63819,-0.63819 v -2.16577 z m 2.57005,-25.27313 c 0,-0.3523 -0.283,-0.63818 -0.63818,-0.63818 -0.3523,0 -0.63819,0.28588 -0.63819,0.63818 v 2.16577 c 0,0.3523 0.28589,0.63818 0.63819,0.63818 0.35518,0 0.63818,-0.28588 0.63818,-0.63818 v -2.16577 z m 0,5.05636 c 0,-0.3523 -0.283,-0.63818 -0.63818,-0.63818 -0.3523,0 -0.63819,0.28588 -0.63819,0.63818 v 2.16577 c 0,0.3523 0.28589,0.63818 0.63819,0.63818 0.35518,0 0.63818,-0.28588 0.63818,-0.63818 v -2.16577 z m 0,5.05347 c 0,-0.3523 -0.283,-0.63818 -0.63818,-0.63818 -0.3523,0 -0.63819,0.28588 -0.63819,0.63818 v 2.16577 c 0,0.3523 0.28589,0.63818 0.63819,0.63818 0.35518,0 0.63818,-0.28588 0.63818,-0.63818 v -2.16577 z m 0,5.05636 c 0,-0.3523 -0.283,-0.63818 -0.63818,-0.63818 -0.3523,0 -0.63819,0.28588 -0.63819,0.63818 v 2.16577 c 0,0.3523 0.28589,0.63818 0.63819,0.63818 0.35518,0 0.63818,-0.28588 0.63818,-0.63818 v -2.16577 z m 0,5.05058 c 0,-0.3523 -0.283,-0.63818 -0.63818,-0.63818 -0.3523,0 -0.63819,0.28588 -0.63819,0.63818 v 2.16866 c 0,0.3523 0.28589,0.63818 0.63819,0.63818 0.35518,0 0.63818,-0.28588 0.63818,-0.63818 v -2.16866 z m 0,5.05636 c 0,-0.3523 -0.283,-0.63818 -0.63818,-0.63818 -0.3523,0 -0.63819,0.28588 -0.63819,0.63818 v 2.16577 c 0,0.3523 0.28589,0.63819 0.63819,0.63819 0.35518,0 0.63818,-0.28589 0.63818,-0.63819 v -2.16577 z m 156.9666,1.4554 c -0.13572,-0.0837 -0.30609,-0.1415 -0.30609,-0.1415 0,0 -0.0491,0.15305 -0.0549,0.30899 -0.0115,0.15593 0.0231,0.31476 0.0231,0.31476 0,0 0.17904,-0.0491 0.33209,-0.12129 0.15016,-0.0693 0.27144,-0.15593 0.27144,-0.15593 0,0 -0.11551,-0.11262 -0.26567,-0.20503 z"
       id="path539" />
    <path
       style="fill-rule:evenodd"
       inkscape:connector-curvature="0"
       clip-rule="evenodd"
       d="m 762.22755,542.24943 c 2.71708,0 5.34832,0 6.24869,0 1.05809,2.89477 0.34937,9.51279 0.34937,13.20011 0,9.60861 0,-4.64759 0,4.95903 0.69474,0 1.38948,0 2.08422,0 0,0.11779 0,0.22958 0,0.34937 0.1158,0 0.23158,0 0.34738,0 -0.04,1.07804 -0.1657,2.57334 0.34737,3.12434 0,-15.28434 0,-13.86092 0,-29.14326 0.64882,-0.24555 1.35555,-0.34537 2.4316,-0.34737 0,-0.58095 0,-1.1579 0,-1.73685 3.47371,0 6.94942,0 10.41914,0 0,0.57895 0,1.1559 0,1.73685 0.23158,0 0.46316,0 0.69474,0 0.64683,0.4472 0.35336,2.769 0.34737,3.82109 -0.11778,3.00855 -0.23158,6.0231 -0.34737,9.02966 0,13.66526 0,10.61878 0,24.27806 0.69874,0 1.38948,0 2.08623,0 0,-5.09278 0,-10.18956 0,-15.28035 0.55499,-0.20961 0.82451,-0.30544 1.73486,-0.34936 0,-0.92633 0,-1.85465 0,-2.77897 0.64882,-0.24357 1.35953,-0.34538 2.43359,-0.34738 0,1.04012 0,2.08423 0,3.12434 0.34538,0 0.69475,0 1.04012,0 0,2.66319 0,5.32637 0,7.98954 -0.69474,0 -1.38948,0 -2.08423,0 0,0.46517 0,0.92832 0,1.3875 4.05267,0 8.10933,0 12.16,0 0,-5.20858 0,-10.41915 0,-15.62772 2.20201,0 4.40202,0 6.60005,0 0.24556,0.64683 0.34338,1.35555 0.34537,2.4296 2.77897,0 5.55794,0 8.33691,0 0,5.67174 0,11.35146 0,17.0212 1.50728,0 3.01256,0 4.51783,0 0.24356,0.64883 0.34538,1.35754 0.34538,2.4296 1.0441,0 2.08422,0 3.12834,0 0,-5.09278 0,-10.18956 0,-15.28035 4.05067,0 8.10333,0 12.15599,0 0,0.69276 0,1.38749 0,2.08224 1.04212,0 2.08423,0 3.12634,0 0,-3.35792 0,-6.71385 0,-10.07178 4.97899,0 9.95798,0 14.93697,0 0.555,1.48732 0.36335,4.20839 0.34537,6.25269 1.73885,0 3.47571,0 5.21257,0 0,3.81909 0,7.64017 0,11.46126 1.50527,0 3.01255,0 4.51583,0 0,-1.04211 0,-2.08424 0,-3.12434 0.1138,0 0.22958,0 0.34737,0 0,-0.11779 0,-0.22959 0,-0.34738 1.2717,0 2.54739,0 3.82108,0 0.1138,-0.2196 0.69475,-0.69674 0.69475,-0.69674 0,-1.50528 0,-3.00856 0,-4.51583 0.56897,-0.47114 0.88639,-1.19783 1.38948,-1.73685 0.23158,-0.11779 0.46316,-0.22959 0.69474,-0.34737 0,-0.23158 0,-0.46316 0,-0.69475 0.34738,-0.22958 0.69475,-0.46515 1.04212,-0.69673 0.53503,-1.12397 -0.35935,-2.66319 0.34737,-3.47372 0,-0.11579 0,-0.23158 0,-0.34737 0.46317,0 0.92433,0 1.39149,0 0,-2.20002 0,-4.40004 0,-6.60205 0.57895,0 1.1559,0 1.73485,0 -0.0419,1.60709 -0.48113,5.33834 0.34937,6.25667 0.3314,1.40546 1.10001,1.21381 1.73486,2.08224 0,0.23157 0,0.46116 0,0.69674 0.11778,0 0.23358,0 0.34937,0 1.07206,1.23376 1.50328,1.11199 3.81908,1.04011 0,5.32436 0,10.65272 0,15.97908 0.34937,0 0.69674,0 1.04412,0 0,-0.57895 0,-1.1559 0,-1.73686 1.50527,0 3.01055,0 4.51382,0 0,-1.1559 0,-2.31381 0,-3.4737 2.31781,0 4.63362,0 6.94943,0 0,-1.04012 0,-2.08424 0,-3.12435 0.80853,0 1.62107,0 2.4316,0 0,-0.81054 0,-1.62306 0,-2.4336 1.85065,0 3.70529,0 5.55794,0 0,1.62306 0,3.24414 0,4.8652 2.20202,0 4.40203,0 6.60205,0 0,-3.35792 0,-6.71585 0,-10.07377 1.04012,0 2.08423,0 3.12235,0 0,-0.69474 0,-1.38949 0,-2.08223 1.1599,0 2.31781,0 3.47371,0 0,-0.69674 0,-1.39148 0,-2.08623 1.15991,0 2.3178,0 3.47571,0 0,0.22959 0,0.46117 0,0.69475 1.48132,0.78058 2.17806,0.72668 4.51583,0.69674 0.23357,0.34736 0.46117,0.69673 0.69474,1.04011 0.11779,0 0.23358,0 0.34737,0 0,0.23159 0,0.46116 0,0.69674 0.1158,0 0.23158,0 0.34738,0 0.4991,0.6069 0.79655,0.83649 1.04012,1.73686 1.0441,0 2.08422,0 3.12833,0 0,9.95398 0,19.91795 0,29.87393 1.2717,0 2.5474,0 3.81909,0 0,-0.92632 0,-1.85264 0,-2.77897 2.54739,0 5.09877,0 7.64616,0 0.67478,1.47733 1.53322,1.70292 2.42761,2.77897 1.62303,0.11779 3.24415,0.22959 4.86517,0.34738 0,0.11778 0,0.22957 0,0.34936 0.69479,0 1.39147,0 2.08428,0 0,-0.11979 0,-0.23158 0,-0.34936 1.04407,0 2.08419,0 3.12628,0 0,-0.11779 0,-0.22959 0,-0.34738 0.57902,0 1.15598,0 1.73689,0 0,-0.11779 0,-0.22958 0,-0.34936 0.46514,0 0.92632,0 1.38949,0 0,-0.1158 0,-0.22959 0,-0.34539 0.23153,0 0.46514,0 0.6947,0 0,-0.11778 0,-0.23357 0,-0.34736 0.34739,0 0.69676,0 1.04012,0 0,-0.11779 0,-0.23557 0,-0.34937 0.69676,-0.23159 1.38952,-0.46116 2.08432,-0.69474 0,-0.11779 0,-0.23358 0,-0.34738 0.4651,-0.11779 0.9283,-0.23357 1.3894,-0.34736 0.1178,-0.23558 0.2356,-0.46516 0.3474,-0.69674 0.2296,0 0.4632,0 0.6967,0 0.1138,-0.23158 0.2297,-0.46117 0.3435,-0.69475 0.2354,0 0.4651,0 0.6947,0 0.1177,-0.23357 0.2336,-0.46316 0.3493,-0.69474 1.1459,-1.07006 1.8646,-1.34756 4.1665,-1.38948 0.7946,1.31562 2.192,1.58513 3.4737,2.43159 0.1158,0.23158 0.2296,0.46117 0.3454,0.69475 0.6967,0.23158 1.3894,0.46116 2.0842,0.69673 0.1158,0.22959 0.2336,0.46117 0.3494,0.69475 0.5789,0.11578 1.1559,0.22959 1.7328,0.34737 0,0.1138 0,0.23158 0,0.34937 0.4672,0.11379 0.9283,0.22958 1.3935,0.34736 0,0.1158 0,0.22959 0,0.34539 0.9223,0.11978 1.8527,0.23157 2.7789,0.34936 0,0.11779 0,0.22959 0,0.34738 0.8745,0.25354 6.2508,0 6.2508,0 0.6828,-0.58894 1.5172,-2.42163 1.7368,-3.47372 1.0421,0 2.0843,0 3.1303,0 0.3435,1.04211 0.6908,2.08622 1.0401,3.12634 2.0564,0.8245 3.356,1.70292 6.25078,1.73686 0.4013,-0.7227 1.0242,-1.3296 1.7389,-1.73686 0,-1.62106 0,-3.24413 0,-4.8632 0.8086,0 1.6211,0 2.4276,0 0.4353,1.1579 0.3654,3.18823 0.3494,4.8632 1.1579,0 2.3158,0 3.4737,0 0.5749,-0.97823 1.3995,-1.18186 1.7369,-2.43159 1.3935,0.30544 2.9047,1.57514 3.823,2.43159 0.1178,0.22959 0.2297,0.46316 0.3474,0.69674 0.2316,0 0.4632,0 0.6948,0 0.1158,0.22959 0.2315,0.46117 0.3473,0.69275 0.9284,0 1.8547,0 2.779,0 0,-0.1158 0,-0.22959 0,-0.34738 1.3915,0 2.7809,0 4.1684,0 0,-0.11578 0,-0.22958 0,-0.34537 0.3474,0 0.6948,0 1.0421,0 0.3455,-1.85464 0.6968,-3.70929 1.0401,-5.55794 0.3494,0 0.6948,0 1.0422,0 0.4013,-2.58332 1.2637,-2.22797 4.1705,-2.08623 0.4392,0.71072 1.1498,1.16589 2.0822,1.38949 0.3453,1.62306 0.6968,3.24014 1.0401,4.8652 1.2277,0.68077 1.4613,1.33757 3.4737,1.38948 0,-0.11979 0,-0.23158 0,-0.34936 0.3494,0 0.6928,0 1.0422,0 0.1177,-0.22959 0.2295,-0.46317 0.3453,-0.69674 0.9822,-0.90037 1.7129,-1.56917 3.4757,-1.73487 0.2156,-1.06607 0.551,-1.20382 0.6947,-2.4316 0.8086,0 1.6212,0 2.4316,0 0.2336,-2.3178 0.4612,-4.63161 0.6928,-6.94743 0.579,-0.11778 1.1579,-0.23158 1.7368,-0.34936 0.1158,0.58095 0.2336,1.1579 0.3474,1.73686 2.5454,0.11778 5.0968,0.23158 7.6442,0.34936 0.2316,2.4316 0.4611,4.8652 0.6928,7.29481 1.5052,-0.11779 3.0125,-0.23359 4.5198,-0.34738 0.1138,-1.73686 0.2295,-3.47371 0.3433,-5.21057 0.8126,0 1.6231,0 2.4357,0 0.1138,0.34937 0.2295,0.69474 0.3453,1.04012 0.1158,0 0.2336,0 0.3494,0 0,0.34937 0,0.69674 0,1.04211 0.9243,-0.11778 1.8506,-0.23358 2.7789,-0.34737 0.1158,-0.46316 0.2317,-0.92832 0.3474,-1.38748 0.1138,0 0.2316,0 0.3454,0 0,-0.34938 0,-0.69674 0,-1.04412 0.3474,-0.23158 0.6948,-0.46116 1.0401,-0.69274 0,-0.34937 0,-0.69874 0,-1.04611 0.1158,0 0.2316,0 0.3494,0 0,-2.31381 0,-4.62763 0,-6.94543 -0.018,-0.0878 -0.4392,-0.1138 -0.3494,-0.69474 0.1158,0 0.2316,0 0.3494,0 0.1158,-1.15592 0.2296,-2.31381 0.3454,-3.47172 -0.2317,-0.11978 -0.4632,-0.23158 -0.6968,-0.34937 0,-0.57895 0,-1.1579 0,-1.73685 -0.2276,-0.1158 -0.4632,-0.22959 -0.6947,-0.34738 -0.6309,-0.80654 -0.6708,-1.65101 -0.6928,-3.12633 0.4632,-0.1158 0.9243,-0.22959 1.3875,-0.34738 0,-0.11579 0,-0.22958 0,-0.34538 0.1158,0 0.2316,0 0.3494,0 0,0.22959 0,0.46117 0,0.69276 0.3433,-0.1158 0.6927,-0.22959 1.0401,-0.34738 0.1138,-0.69475 0.2316,-1.38749 0.3474,-2.08223 0.2295,-0.11779 0.4612,-0.23358 0.6927,-0.34737 0,-1.04211 0,-2.08623 0,-3.12635 -0.4632,0 -0.9283,0 -1.3895,0 0,-0.11778 0,-0.23158 0,-0.34736 0.4612,0 0.9263,0 1.3895,0 0,-0.11779 0,-0.23358 0,-0.34938 -0.1158,0 -0.2315,0 -0.3453,0 0,-0.11578 0,-0.23158 0,-0.34736 0.2295,0 0.4631,0 0.6927,0 0,-0.23158 0,-0.46317 0,-0.69475 0.2296,0 0.4651,0 0.6967,0 0,-0.34737 0,-0.69674 0,-1.04012 0.1138,0 0.2296,0 0.3474,0 0,0.34538 0,0.69475 0,1.04012 0.3454,-0.11779 0.6948,-0.23158 1.0421,-0.34737 -0.1158,0.34737 -0.2316,0.69674 -0.3473,1.04012 0.3473,0 0.6947,0 1.0401,0 0.1158,-1.73486 0.2315,-3.47571 0.3473,-5.20857 0.1178,0 0.2336,0 0.3474,0 0.1337,-1.06208 -0.9623,-0.70273 -0.6968,-1.73886 0.2316,-0.11579 0.4652,-0.23158 0.6968,-0.34737 0,-0.34737 0,-0.69674 0,-1.04211 0.3474,0.11778 0.6948,0.23357 1.0401,0.34737 0,0.11778 0,0.23358 0,0.34936 -0.1158,0 -0.2336,0 -0.3453,0 -0.6569,0.29947 0.6927,0.34738 0.6927,0.34738 -0.054,1.2697 -0.4292,2.23395 -0.6927,3.12834 0,1.38749 0,2.77697 0,4.16646 -0.1159,0 -0.2297,0 -0.3474,0 -0.4153,1.659 1.1498,1.82869 0.6947,3.47371 -0.1158,0 -0.2335,0 -0.3453,0 0,0.34737 0,0.69674 0,1.04211 -0.1158,0 -0.2296,0 -0.3474,0 0,0.81053 0,1.62107 0,2.4296 -0.1178,0 -0.2316,0 -0.3474,0 0,0.34937 0,0.69674 0,1.04412 -0.1138,0 -0.2316,0 -0.3473,0 -0.082,0.79257 1.1338,1.55518 0.6947,2.77897 -0.2316,0.11779 -0.4652,0.22959 -0.6947,0.34737 0.1177,1.1579 0.2335,2.3178 0.3473,3.47371 -0.1138,0 -0.2316,0 -0.3473,0 0.1177,2.31581 0.2335,4.63162 0.3473,6.94543 0.1158,0 0.2296,0 0.3474,0 -0.1178,0.34937 -0.2316,0.69874 -0.3474,1.04411 0.1158,0 0.2296,0 0.3474,0 0,0.23158 0,0.46117 0,0.69275 0.1178,0 0.2336,0 0.3474,0 0.1137,0.58295 0.2315,1.1579 0.3453,1.74085 0.3474,0 0.6948,0 1.0422,0 0.2514,1.39747 0.3513,3.33197 0.3473,5.20857 0.8165,0.0399 0.8804,0.10181 1.3895,0.34737 0,-0.11579 0,-0.23158 0,-0.34737 0.6848,-0.58294 1.1739,-1.75283 1.3894,-2.77897 0.9883,-0.034 1.4914,-0.0699 2.0843,-0.34937 0,0.11579 0,0.23158 0,0.34937 0.1158,0 0.2335,0 0.3454,0 0,0.92632 0,1.85265 0,2.77897 0.9263,0.11579 1.8546,0.23158 2.783,0.34737 0.1138,0.34737 0.2276,0.69674 0.3453,1.04211 0.1158,0 0.2316,0 0.3474,0 0,0.34738 0,0.69475 0,1.04012 0.3334,0.45717 1.2837,0.35137 2.0842,0.34937 0,1.04012 0,2.08223 0,3.12435 0.5789,0 1.1559,0 1.7349,0 0,-1.50727 0,-3.01255 0,-4.51583 0.4651,0 0.9283,0 1.3895,0 0.1177,0.46117 0.2335,0.92432 0.3494,1.38949 1.3894,0 2.7809,0 4.1683,0 0.2916,-0.39529 -0.046,-0.0519 0.3455,-0.34937 0.3473,-1.50528 0.6947,-3.01255 1.044,-4.51583 0.6928,-0.23357 1.3895,-0.46316 2.0843,-0.69474 -0.7766,-1.9365 -0.4392,-3.29604 0,-5.55994 0.6947,0 1.3895,0 2.0822,0 0.1178,-0.92433 0.2296,-1.85065 0.3454,-2.77897 1.0421,0.11778 2.0862,0.23158 3.1263,0.34737 0.1179,0.92832 0.2336,1.85265 0.3474,2.77897 0.9283,0.23158 1.8566,0.46516 2.781,0.69674 -0.078,2.77897 -0.3115,7.01331 1.0401,8.33891 0,-0.11779 0,-0.23558 0,-0.34937 0.4631,0 0.9283,0 1.3895,0 0.2834,-0.45717 0.2435,-0.40926 0.6948,-0.69474 0,-0.34737 0,-0.69475 0,-1.04012 3.0125,0 6.0231,0 9.0316,0 0.4611,0.69474 0.9283,1.38749 1.3874,2.08423 0.1179,0 0.2316,0 0.3494,0 0.1178,0 0.2316,0 0.3474,0 0,0.11379 0,0.22958 0,0.34737 1.0421,0 2.0843,0 3.1264,0 -0.1179,-2.20201 -0.2317,-4.40203 -0.3494,-6.60005 0.3494,0 0.6968,0 1.0441,0 0,-1.2757 0,-2.54939 0,-3.82309 0.4592,0 0.9243,0 1.3875,0 0,-1.1559 0,-2.3158 0,-3.47371 1.0421,0 2.0842,0 3.1263,0 0,0.92832 0,1.85265 0,2.77897 1.8527,0 3.7033,0 5.5579,0 0,0.92832 0,1.85464 0,2.77897 3.1244,0 6.2547,0 9.3771,0 0,2.08423 0,4.17245 0,6.25668 2.5474,0 5.0948,0 7.6421,0 0,3.12434 0,6.25268 0,9.37703 0.2336,0 0.4632,0 0.6968,0 0,1.1579 0,2.31381 0,3.47371 -227.62612,0 -455.32003,0 -682.94606,0 0,-4.62962 0,-9.26523 0,-13.89486 0.11578,0 0.22959,0 0.34537,0 0.11779,0.23158 0.23358,0.46117 0.34937,0.69675 0.11779,0 0.23158,0 0.34538,0 0,-0.11979 0,-0.23358 0,-0.34937 1.27568,0 2.54938,0 3.82307,0 0.23359,-0.65682 0.44919,-2.12416 0.69475,-2.77897 0.34737,0 0.69674,0 1.04211,0 0,-0.81053 0,-1.62306 0,-2.4356 2.92271,-0.24755 5.61184,-0.67477 9.03165,-0.69274 0,-5.78753 0,-11.58104 0,-17.36856 0.557,-0.20962 0.82452,-0.30346 1.73686,-0.34738 0.50908,-3.35193 2.62924,-2.57933 6.25268,-2.4316 0.76263,0.68875 5.71367,0.37533 7.2968,0.34738 0.34338,1.62106 0.69475,3.24213 1.04012,4.86519 0.11579,0 0.23358,0 0.34936,0 0.67079,1.89657 0.65682,4.82726 0.69475,7.2908 1.15591,0 2.31381,0 3.47371,0 0.11779,-0.34736 0.23158,-0.69274 0.34737,-1.04012 1.73686,0 3.47371,0 5.21057,0 0,0.11979 0,0.23358 0,0.34938 0.46117,0 0.92633,0 1.38949,0 0.22958,0.42722 0.55299,0.48112 0.69475,0.69274 0,0.23558 0,0.46516 0,0.69674 0.23357,0.11579 0.46315,0.23358 0.69473,0.34937 0,0.23158 0,0.46117 0,0.69275 0.23359,0.11978 0.46316,0.23557 0.69475,0.34936 0.23357,1.96844 0.46316,3.93688 0.69474,5.90332 2.08223,0 4.16846,0 6.25069,0 0.23358,-1.38549 0.46316,-2.77897 0.69474,-4.16646 0.34937,0 0.69474,0 1.04411,0 0,-0.11579 0,-0.23159 0,-0.34937 0.11379,0 0.23158,0 0.34537,0 0,-0.45917 0,-0.92632 0,-1.38749 2.31781,0 4.63362,0 6.94543,0 0.29347,0.39129 -0.0419,0.0499 0.34937,0.34738 0.1677,2.02233 1.15591,2.85083 1.38949,4.86518 0.57895,0 1.15591,0 1.73686,0 0,-0.11778 0,-0.23158 0,-0.34936 2.43359,0 4.86519,0 7.29479,0 0.01,1.1599 0.18168,1.57315 0.34737,2.43559 0.69475,0 1.38949,0 2.08424,0 0,-0.11779 0,-0.23557 0,-0.34937 0.11778,0 0.23157,0 0.34736,0 0,-0.34737 0,-0.69873 0,-1.04411 0.45119,-0.61688 2.77498,-0.38729 3.82109,-0.34537 0.11778,-0.57896 0.23158,-1.15591 0.34737,-1.73686 0.69474,0 1.38948,0 2.08423,0 0,0.23159 0,0.46116 0,0.69475 0.68475,0.34737 1.6031,0.7147 2.43359,1.04211 0,0.69274 0,1.38948 0,2.08622 0.11379,0 0.22759,0 0.34538,0 0.8245,0.73667 6.08498,0.7207 7.99153,0.69474 -0.034,-5.91728 0.53304,-11.51316 0.69475,-17.02318 0.57895,-0.1158 1.1579,-0.22959 1.73685,-0.34738 0.57895,-3.24212 1.1599,-6.48426 1.73686,-9.72639 -0.0419,3.46572 0.81652,6.52618 1.38948,9.38102 0.69474,0.11579 1.38949,0.22958 2.08423,0.34537 0.11779,4.97899 0.23358,9.95998 0.34737,14.93497 0.92633,0 1.85465,0 2.77897,0 0,-1.96644 0,-3.93488 0,-5.90331 1.62107,0 3.24414,0 4.86719,0 0.2276,0.34737 0.46117,0.69674 0.69475,1.04011 0.46117,0 0.92233,0 1.38949,0 0,0.11779 0,0.23359 0,0.34738 0.39528,0.39727 0.13575,0.002 0.34537,0.69674 0.46316,0.11578 0.92832,0.23158 1.38948,0.34736 0.23158,2.31781 0.46316,4.62963 0.69475,6.94743 0.81053,0 1.62306,0 2.43359,0 0,-0.58095 0,-1.1579 0,-1.73486 0.34338,0 0.69475,0 1.04012,0 0,-0.11778 0,-0.23358 0,-0.34737 0.11579,0 0.23158,0 0.34937,0 0.33539,-0.46715 -0.15372,-1.10999 0.34537,-1.39348 1.15991,0 2.3178,0 3.47372,0 0.67277,0.62287 2.91472,0.38131 4.16845,0.34737 0.23158,-2.54339 0.46516,-5.09278 0.69674,-7.64017 0.11579,0 0.23158,0 0.34737,0 0,-0.22959 0,-0.45916 0,-0.69674 0.11778,0 0.23158,0 0.34737,0 0,-0.22958 0,-0.45916 0,-0.69275 0.11379,0 0.22959,0 0.34737,0 0.11579,-0.34936 0.22959,-0.69674 0.34538,-1.04211 0.39528,0.29347 0.0499,-0.0439 0.34737,0.34738 0.72469,0.63085 0.63285,1.17387 1.04211,2.08422 0.11379,0 0.22959,0 0.34538,0 0.23357,2.66518 0.46117,5.32636 0.69474,7.98954 1.41544,0.25155 2.27788,0.87442 2.4316,2.43559 0.34737,0 0.69475,0 1.04012,0 0.11778,-0.46515 0.23358,-0.92832 0.34737,-1.38948 0.92432,0 1.85264,0 2.77897,0 0.11779,-0.69674 0.23158,-1.39347 0.34738,-2.08623 0.92831,0 1.85264,0 2.77897,0 0,-0.57894 0,-1.1559 0,-1.73685 0.57894,0 1.15789,0 1.73885,0 0,-0.46317 0,-0.92633 0,-1.38948 0.59692,-0.2236 1.08803,-0.33141 2.08223,-0.34738 0.39329,0.39528 0,0.13975 0.69674,0.34738 0.11379,2.20201 0.22958,4.40003 0.34338,6.60405 1.50527,0 3.01254,0 4.51782,0 0.22359,0.59691 0.3314,1.08802 0.34537,2.08223 0.92832,0 1.85465,0 2.77897,0 0.11579,0.92631 0.23158,1.85264 0.34937,2.78096 1.15591,-0.11779 2.31381,-0.23558 3.47172,-0.34937 0,-1.1579 0,-2.31581 0,-3.47171 3.00855,-0.11779 6.0231,-0.23358 9.03165,-0.34937 0.24755,0.64882 0.34538,1.35953 0.34737,2.43359 0.11779,0 0.23158,0 0.34737,0 0,0.45917 0,0.92633 0,1.38749 1.15192,0.20763 2.57734,0.35136 4.16846,0.34937 0.41525,-0.66879 1.55518,-1.51726 2.43359,-1.73686 0.1158,-0.81053 0.22959,-1.62306 0.34538,-2.43359 2.31781,0.11579 4.63361,0.23158 6.94743,0.34937 0.34937,1.1559 0.69474,2.31381 1.0441,3.47171 1.04012,0.11379 2.08424,0.23158 3.12635,0.34937 0,-0.81053 0,-1.62306 0,-2.4336 0.46316,0 0.92633,0 1.38949,0 0.11379,0.57895 0.23157,1.15591 0.34737,1.73686 1.04211,0 2.08422,0 3.12633,0 0,-4.05266 0,-8.10733 0,-12.15999 0.92034,-0.34338 2.41164,-0.36134 3.82109,-0.34538 0,-1.04411 0,-2.08622 0,-3.12834 1.07606,-0.40326 2.93069,-0.36333 4.51583,-0.34537 0,0.46117 0,0.92832 0,1.38749 1.04211,0 2.08622,0 3.12434,0 0,0.69474 0,1.38949 0,2.08622 0.46317,0 0.92832,0 1.38948,0 0,2.5454 0,5.09478 0,7.64217 1.56717,-0.024 6.71785,-0.17568 6.94544,0 0.51706,0.553 0.38131,2.0463 0.34937,3.12435 0.92632,0 1.85065,0 2.77897,0 0,0.11579 0,0.22958 0,0.34936 0.11579,0 0.23158,0 0.34537,0 0,0.34738 0,0.69475 0,1.04012 1.04411,0 2.08622,0 3.12834,0 0.11579,-1.50527 0.22958,-3.01254 0.34538,-4.51583 1.50527,0 3.01055,0 4.51582,0 0,0.69674 0,1.38749 0,2.08424 0.46116,0 0.92832,0 1.38948,0 0.1158,0.80853 0.23359,1.62106 0.34738,2.43159 1.38948,0 2.77897,0 4.16845,0 0.1158,-1.1599 0.22959,-2.3178 0.34738,-3.47371 0.57895,0 1.1579,0 1.73686,0 0.11778,-0.69474 0.23158,-1.38948 0.34736,-2.08223 1.38949,0 2.77897,0 4.16846,0 0.11579,0.80853 0.23358,1.61907 0.34936,2.4296 2.31382,-0.11579 4.62963,-0.23158 6.94544,-0.34737 -0.0199,-2.85883 0.11779,-5.97718 0.34537,-8.33891 0.81053,0 1.62307,0 2.4336,0 0,-0.11379 0,-0.22958 0,-0.34537 0.11579,0 0.22959,0 0.34737,0 0,-0.57896 0,-1.15791 0,-1.73686 2.4316,0 4.8632,0 7.2928,0 0.11779,0.69274 0.23358,1.38749 0.34737,2.08223 0.34737,0 0.69674,0 1.04212,0 0,0.11779 0,0.23358 0,0.34737 0.11578,0 0.23357,0 0.34736,0 0,0.58095 0,1.15791 0,1.73686 0.23159,0.11779 0.46317,0.23158 0.69475,0.34737 0,0.23358 0,0.46316 0,0.69474 0.11379,0 0.22959,0 0.34537,0 0,0.23558 0,0.46516 0,0.69674 0.11779,0 0.23358,0 0.34738,0 0,0.69674 0,1.39148 0,2.08623 0.11379,0 0.23157,0 0.34737,0 0,0.11379 0,0.23158 0,0.34937 0.34737,0 0.69474,0 1.04012,0 0.4931,-1.33559 0.34736,-3.69532 0.34736,-5.55994 0,-3.35792 0,-6.71784 0,-10.07377 0.55699,-0.20962 0.82651,-0.30345 1.73686,-0.34937 0,-1.38749 0,-2.77897 0,-4.16646 1.61907,0 3.24213,0 4.8652,0 0,0.92433 0,1.85265 0,2.77897 0.34537,0 0.69474,0 1.04012,0 0,-1.04011 0,-2.08422 0,-3.12434 1.50527,0 3.01254,0 4.51782,0 0,1.38749 0,2.77698 0,4.16646 0.23158,0.11779 0.46117,0.23158 0.69474,0.34736 0,1.04412 0,2.08623 0,3.12635 0.46116,0 0.92433,0 1.38948,0 0,-0.92432 0,-1.85264 0,-2.77897 2.89477,0 5.78953,0 8.68429,0 0,1.04012 0,2.08423 0,3.12434 0.57695,0 1.15791,0 1.73686,0 0,0.57895 0,1.15791 0,1.73686 0.57894,0 1.1559,0 1.73685,0 0,-1.1559 0,-2.31581 0,-3.47371 1.73686,0 3.47571,0 5.21057,0 0,-9.73837 0,-5.55595 0,-8.26305 0.04,-1.18385 4.12853,-9.89609 6.99135,-9.89609 z m 307.08035,7.39462 c 0.2316,0 0.4631,0 0.6967,0 0,0.1138 0,0.22958 0,0.34538 -0.6987,-0.19764 -0.3054,0.0439 -0.6967,-0.34538 z m 3.4736,1.38948 c 0,0.34937 0,0.69475 0,1.04012 0.1138,0 0.2297,0 0.3474,0 0,-0.34737 0,-0.69274 0,-1.04012 -0.1177,0 -0.2355,0 -0.3474,0 z"
       id="path547" />
    <path
       style="fill-rule:evenodd"
       inkscape:connector-curvature="0"
       clip-rule="evenodd"
       d="m 1151.0165,565.09281 h 7.8829 v 8.36214 l 3.2575,1.91495 v -10.46916 l 3.762,-1.72094 v -3.00144 l 1.8626,-0.008 -0.019,-2.22344 h 2.6192 l 0,1.38722 1.589,0.0175 v 6.89342 l 2.4039,-0.13193 0.023,-9.12462 h 7.1456 l 0.019,9.59996 1.5153,-0.0252 -0.019,-1.2126 h 3.1994 V 551.4377 h 12.8943 v 13.14854 h 4.9281 v 6.90507 h 1.4396 v -11.83505 h 1.003 v -1.96151 l 2.7085,-0.0175 0.066,3.17606 6.3696,-0.008 -0.1223,10.79899 2.4544,-0.004 -0.019,-5.69052 h 7.0796 v 2.37089 h 0.8246 l 0.081,-6.73434 1.2514,-0.064 v -2.46014 h 9.2352 v 2.52028 h 1.4028 v 8.17006 h 2.4912 l 0.031,5.89618 0.9895,0.008 -0.047,-8.92091 0.5433,-0.1494 0.2386,-1.94017 h 0.3492 l 0.2891,-1.43572 h 2.4214 l 1.0903,3.25366 h 4.1113 v 3.57574 h 1.6278 v -1.96345 h 4.5477 v -2.39224 h 2.79 v -0.94292 h 3.2575 v 0.89442 h 1.6608 v 1.02247 h 9.5728 v 7.68696 h 1.3349 v -3.82796 h 2.3476 v -2.58625 l 1.0477,-0.01 0,-2.23896 h 4.5943 v -3.30411 h 6.4142 v 3.8299 h 0.7683 v 8.90345 h 3.6863 v 1.38528 h 4.7379 v -10.33723 h 1.1952 l 0.035,-3.28859 1.5424,-0.0621 v -1.77332 h 1.915 v 1.86645 h 1.8199 v 3.06547 h 1.0981 v 3.82796 h 3.3507 v 9.01209 h 2.5241 v -1.46483 h 3.1916 l 0.056,1.07292 2.821,-0.0504 0,-1.98091 h 5.9699 v -30.75754 l 1.1719,-1.1253 0.05,-3.35067 2.173,-4.61955 0.2483,-5.39756 0.5646,-8.82196 0.5782,9.12075 0.3318,5.10071 2.4388,4.70104 0.05,3.02278 1.3349,1.33484 0.2017,30.05713 4.736,-0.01 v 1.38723 h 5.4577 v 15.32735 h -192.613 v -27.26135 z"
       id="path551" />
  </g>
</svg>
